<svg width="217" height="217" viewBox="0 0 217 217" fill="none" xmlns="http://www.w3.org/2000/svg">
<g id="cat">
<circle id="Ellipse 2" cx="108.5" cy="108.5" r="108.5" fill="#FDFFB6"/>
<g id="Frame" clip-path="url(#clip0)">
<g id="Group">
<path id="Vector" d="M109 117.675V143.693H48.2916V170H109H169.708V117.675H109Z" fill="#B9C9D9"/>
<path id="Vector_2" d="M109 117.675H169.708V170H109V117.675Z" fill="#9AC9EF"/>
<g id="Group_2">
<path id="Vector_3" d="M161.036 91.6573V78.6484C161.036 42.2133 138.579 24.6171 137.622 23.9013L135.103 22L132.519 23.821C131.651 24.435 111.202 39.5115 109.161 73.8039L108.991 76.641L138.576 91.657H161.036V91.6573Z" fill="#B9C9D9"/>
</g>
<g id="Group_3">
<path id="Vector_4" d="M79.424 91.6573L109.009 76.6413L108.839 73.8042C106.798 39.5115 86.3488 24.435 85.4807 23.821L82.8974 22L80.3777 23.9013C79.4205 24.6171 56.9642 42.2133 56.9642 78.6484V91.6573H79.424Z" fill="#CFDFE6"/>
</g>
<g id="Group_4">
<g id="Group_5">
<path id="Vector_5" d="M83.0331 33.116C77.6211 38.4433 65.637 53.3842 65.637 78.6484V88.9301L99.9632 71.5085C97.9263 50.1109 87.8351 37.7362 83.0331 33.116V33.116Z" fill="#FF8080"/>
</g>
</g>
<g id="Group_6">
<g id="Group_7">
<path id="Vector_6" d="M118.032 71.5045L152.363 88.9301V78.6484C152.363 53.5325 140.315 38.4601 134.941 33.116C130.106 37.7362 120.069 50.0221 118.032 71.5045Z" fill="#FF435B"/>
</g>
</g>
<path id="Vector_7" d="M109 117.675H74.3094V136.653C81.9737 141.102 90.8444 143.693 100.327 143.693H109H117.673C120.637 143.693 123.516 143.363 126.345 142.883V117.675H109Z" fill="#FF8080"/>
<path id="Vector_8" d="M126.345 142.883V117.675H109V143.693H117.673C120.637 143.693 123.516 143.363 126.345 142.883Z" fill="#FF435B"/>
<path id="Vector_9" d="M126.345 117.675H152.167C157.657 110.411 161.036 101.466 161.036 91.6573C161.036 67.7088 141.621 48.2942 117.673 48.2942H109H100.327C76.3788 48.2942 56.9642 67.7088 56.9642 91.6573C56.9642 115.606 76.3788 135.02 100.327 135.02H109H117.673C120.643 135.02 123.543 134.715 126.345 134.147V117.675Z" fill="#E6EEF2"/>
<path id="Vector_10" d="M126.345 117.675H152.167C157.657 110.411 161.036 101.466 161.036 91.6573C161.036 67.7088 141.621 48.2942 117.673 48.2942H109V135.02H117.673C120.643 135.02 123.543 134.715 126.345 134.147V117.675Z" fill="#CFDFE6"/>
<g id="Group_8">
<path id="Vector_11" d="M143.69 87.321H135.018C135.018 84.9285 133.074 82.9847 130.682 82.9847C128.289 82.9847 126.345 84.9285 126.345 87.321H117.673C117.673 80.1476 123.508 74.3121 130.682 74.3121C137.855 74.3121 143.69 80.1476 143.69 87.321Z" fill="#4D1729"/>
</g>
<g id="Group_9">
<path id="Vector_12" d="M100.327 87.321H91.6547C91.6547 84.9285 89.7109 82.9847 87.3184 82.9847C84.9259 82.9847 82.9821 84.9285 82.9821 87.321H74.3094C74.3094 80.1476 80.145 74.3121 87.3184 74.3121C94.4918 74.3121 100.327 80.1476 100.327 87.321Z" fill="#66283D"/>
</g>
<path id="Vector_13" d="M122.009 104.666C122.009 107.059 120.065 109.003 117.673 109.003C115.28 109.003 113.336 107.059 113.336 104.666V95.9936H109H104.664V104.666C104.664 107.059 102.72 109.003 100.327 109.003C97.9349 109.003 95.9911 107.059 95.9911 104.666H87.3185C87.3185 111.84 93.154 117.675 100.327 117.675C103.671 117.675 106.693 116.372 109 114.292C111.307 116.372 114.329 117.675 117.673 117.675C124.846 117.675 130.682 111.84 130.682 104.666H122.009Z" fill="#FF8080"/>
<path id="Vector_14" d="M130.682 104.666H122.009C122.009 107.059 120.065 109.003 117.673 109.003C115.28 109.003 113.336 107.059 113.336 104.666V95.9936H109V114.292C111.307 116.372 114.329 117.675 117.673 117.675C124.846 117.675 130.682 111.84 130.682 104.666Z" fill="#FF435B"/>
<path id="Vector_15" d="M109 143.693C101.815 143.693 95.9911 149.517 95.9911 156.702C95.9911 163.887 101.815 170 109 170C116.185 170 122.009 163.887 122.009 156.702C122.009 149.517 116.185 143.693 109 143.693Z" fill="#FFE666"/>
<path id="Vector_16" d="M122.009 156.702C122.009 149.517 116.185 143.693 109 143.693V170C116.185 170 122.009 163.887 122.009 156.702Z" fill="#FABE2C"/>
<g id="Group_10">
<path id="Vector_17" d="M148.027 91.6573C131.291 91.6573 117.673 105.276 117.673 122.012V126.348H135.018L139.354 117.675L143.69 126.348H152.363L156.699 117.675L161.036 126.348H178.381V122.012C178.381 105.276 164.762 91.6573 148.027 91.6573V91.6573Z" fill="#B9C9D9"/>
</g>
<g id="Group_11">
<path id="Vector_18" d="M135.018 109.003H143.69V126.348H135.018V109.003Z" fill="#FF435B"/>
</g>
<g id="Group_12">
<path id="Vector_19" d="M152.363 109.003H161.036V126.348H152.363V109.003Z" fill="#FF435B"/>
</g>
<g id="Group_13">
<path id="Vector_20" d="M69.9732 117.675C53.2376 117.675 39.619 131.294 39.619 148.029V152.366H56.9643L61.3006 143.693L65.6369 152.366H74.3095L78.6458 143.693L82.9821 152.366H100.327V148.029C100.327 131.294 86.7087 117.675 69.9732 117.675V117.675Z" fill="#CFDFE6"/>
</g>
<g id="Group_14">
<path id="Vector_21" d="M56.9642 135.02H65.6369V152.366H56.9642V135.02Z" fill="#FF435B"/>
<path id="Vector_22" d="M74.3094 135.02H82.9821V152.366H74.3094V135.02Z" fill="#FF435B"/>
</g>
</g>
</g>
</g>
<defs>
<clipPath id="clip0">
<rect width="148" height="148" fill="white" transform="translate(35 22)"/>
</clipPath>
</defs>
</svg>
