<svg width="217" height="217" viewBox="0 0 217 217" fill="none" xmlns="http://www.w3.org/2000/svg">
<g id="dog">
<circle id="Ellipse 1" cx="108.5" cy="108.5" r="108.5" fill="#CAFFBF"/>
<g id="Frame" clip-path="url(#clip0)">
<g id="Group">
<g id="Group_2">
<path id="Vector" d="M135.511 88.0321C134.758 88.0321 134 87.8159 133.336 87.3793L107.04 70.0751C106.156 69.4918 105.538 68.5763 105.333 67.5374C105.128 66.4946 105.352 65.1532 105.951 64.2765C119.771 44.0679 140.007 44.8442 146.639 45.0683L147.937 45.1068C150.123 45.1068 151.892 46.8758 151.892 49.062L151.93 50.4216C152.162 56.6787 152.772 73.5631 138.187 86.9853C137.438 87.677 136.476 88.0321 135.511 88.0321V88.0321Z" fill="#FCBB6D"/>
</g>
<g id="Group_3">
<path id="Vector_2" d="M74.274 82.138C64.3667 69.77 64.8767 55.6438 65.0697 50.4218L65.1082 49.0623C65.1082 46.8761 66.8772 45.107 69.0634 45.107L70.3613 45.0685C76.9894 44.8444 97.2292 44.0642 111.049 64.277C111.721 65.2542 111.914 66.7461 111.582 67.8858C111.246 69.0251 110.42 69.9522 109.33 70.4158L78.9051 83.3088C77.2837 83.9944 75.3878 83.5313 74.274 82.138V82.138Z" fill="#FFCA80"/>
</g>
<path id="Vector_3" d="M108.5 52.9052C81.2498 52.9052 62.6384 73.9845 65.1199 92.7212L70.1219 100.632H108.5H146.878L151.88 92.7212C154.323 74.2793 135.957 52.9052 108.5 52.9052V52.9052Z" fill="#FFE6B3"/>
<path id="Vector_4" d="M151.88 92.7212C154.323 74.279 135.956 52.9052 108.5 52.9052V100.632H146.878L151.88 92.7212Z" fill="#FFCA80"/>
<path id="Vector_5" d="M151.88 92.7212H146.878C145.125 92.7212 143.529 91.7556 143.089 90.4229C140.393 82.3347 132.849 76.9003 124.321 76.9003C117.829 76.9003 112.108 80.0869 108.5 84.9328C104.892 80.0869 99.1709 76.9003 92.6791 76.9003C84.1505 76.9003 76.6071 82.3347 73.911 90.4269C73.4706 91.7556 71.8753 92.7212 70.1219 92.7212H65.1198C55.6715 102.158 49.1715 117.059 49.1715 132.274C49.1715 146.345 60.3843 160.532 82.5012 174.445C83.8455 175.291 85.5797 175.241 86.8852 174.329C88.1907 173.41 88.8127 171.795 88.4689 170.238L88.1366 168.755C94.9655 173.178 101.775 177.323 106.862 179.645C107.382 179.88 107.941 179.998 108.5 179.999C108.501 179.999 108.502 180 108.504 180C109.064 180 109.62 179.881 110.142 179.645C115.233 177.327 122.038 173.19 128.856 168.778L128.531 170.238C128.188 171.795 128.81 173.41 130.115 174.329C131.428 175.248 133.147 175.299 134.499 174.445C156.616 160.532 167.828 146.345 167.828 132.274C167.828 117.07 161.336 102.166 151.88 92.7212V92.7212Z" fill="#FFF7CC"/>
<path id="Vector_6" d="M110.142 179.645C115.233 177.327 122.038 173.19 128.856 168.778L128.531 170.238C128.188 171.795 128.81 173.41 130.115 174.329C131.428 175.248 133.147 175.299 134.499 174.445C156.616 160.532 167.828 146.345 167.828 132.274C167.828 117.07 161.336 102.165 151.88 92.7212H146.878C145.125 92.7212 143.529 91.7556 143.089 90.4229C140.393 82.3347 132.849 76.9003 124.321 76.9003C117.829 76.9003 112.108 80.0869 108.5 84.9328V179.999C108.501 179.999 108.502 180 108.504 180C109.064 180 109.62 179.88 110.142 179.645V179.645Z" fill="#FFE6B3"/>
<path id="Vector_7" d="M92.6791 100.632C94.8635 100.632 96.6343 98.8608 96.6343 96.6764C96.6343 94.492 94.8635 92.7212 92.6791 92.7212C90.4947 92.7212 88.7239 94.492 88.7239 96.6764C88.7239 98.8608 90.4947 100.632 92.6791 100.632Z" fill="#5B5555"/>
<path id="Vector_8" d="M124.321 100.632C126.505 100.632 128.276 98.8608 128.276 96.6764C128.276 94.492 126.505 92.7212 124.321 92.7212C122.137 92.7212 120.366 94.492 120.366 96.6764C120.366 98.8608 122.137 100.632 124.321 100.632Z" fill="#463F3F"/>
<g id="Group_4">
<path id="Vector_9" d="M127.399 118.983C126.843 116.87 124.684 115.63 122.567 116.159C117.89 117.395 114.07 114.506 112.896 111.161C112.25 109.313 110.368 108.334 108.51 108.648C108.507 108.647 108.503 108.648 108.5 108.648C106.637 108.318 104.752 109.306 104.105 111.161C102.935 114.506 99.1298 117.418 94.4329 116.159C92.3316 115.63 90.1533 116.87 89.6009 118.983C89.0485 121.096 90.3115 123.258 92.4244 123.815C98.5706 125.419 104.662 123.372 108.5 119.012L108.501 119.011C112.338 123.369 118.426 125.42 124.576 123.814C126.689 123.258 127.952 121.096 127.399 118.983V118.983Z" fill="#5B5555"/>
<path id="Vector_10" d="M124.576 123.815C126.689 123.258 127.952 121.095 127.4 118.983C126.843 116.87 124.684 115.63 122.568 116.159C117.89 117.395 114.07 114.506 112.896 111.161C112.25 109.313 110.368 108.334 108.51 108.648C108.507 108.647 108.504 108.648 108.5 108.648V119.012L108.501 119.012C112.337 123.369 118.425 125.42 124.576 123.815V123.815Z" fill="#463F3F"/>
<g id="Group_5">
<path id="Vector_11" d="M110.478 96.6817H108.5H106.522C100.233 96.5886 96.6343 98.1952 96.6343 104.587C96.6343 111.13 101.957 116.453 108.5 116.453C115.043 116.453 120.366 111.13 120.366 104.587C120.366 98.1538 116.766 96.6432 110.478 96.6817V96.6817Z" fill="#5B5555"/>
<path id="Vector_12" d="M120.366 104.587C120.366 98.1538 116.766 96.6432 110.478 96.6817H108.5V116.453C115.043 116.453 120.366 111.13 120.366 104.587V104.587Z" fill="#463F3F"/>
</g>
</g>
</g>
</g>
</g>
<defs>
<clipPath id="clip0">
<rect width="135" height="135" fill="white" transform="translate(41 45)"/>
</clipPath>
</defs>
</svg>
