<?xml version="1.0" encoding="iso-8859-1"?>
<!-- Generator: Adobe Illustrator 19.0.0, SVG Export Plug-In . SVG Version: 6.00 Build 0)  -->
<svg version="1.1" id="Capa_1" xmlns="http://www.w3.org/2000/svg" xmlns:xlink="http://www.w3.org/1999/xlink" x="0px" y="0px"
	 viewBox="0 0 512 512" style="enable-background:new 0 0 512 512;" xml:space="preserve">
<path style="fill:#45E6E6;" d="M431.796,311.975c-9.04-1.804-17.838,4.056-19.645,13.098l-28.023,140.113
	c-1.555,7.777-8.44,13.422-16.372,13.422h-37.655l14.86-148.6c0.917-9.175-5.777-17.357-14.951-18.274
	c-9.173-0.91-17.357,5.776-18.274,14.953l-15.193,151.92h-81.085l-15.192-151.921c-0.918-9.175-9.092-15.874-18.274-14.953
	c-9.175,0.917-15.869,9.099-14.951,18.274l14.859,148.6h-37.655c-7.93,0-14.817-5.644-16.372-13.421L99.85,325.074
	c-1.808-9.042-10.604-14.901-19.645-13.098c-9.041,1.809-14.906,10.604-13.097,19.645l28.023,140.115
	c4.666,23.329,25.322,40.263,49.114,40.263h56.061c0.008,0,0.016,0.001,0.023,0.001c0.007,0,0.014-0.001,0.022-0.001h111.301
	c0.007,0,0.014,0.001,0.022,0.001c0.008,0,0.016-0.001,0.023-0.001h56.061c23.792,0,44.448-16.934,49.114-40.264l28.023-140.114
	C446.702,322.579,440.837,313.784,431.796,311.975z"/>
<g>
	<path style="fill:#FFC033;" d="M429.642,244.881c-0.116,0-0.232-0.001-0.349-0.003c-0.256-0.006-0.513-0.009-0.771-0.009
		c-9.22,0-16.696-7.475-16.696-16.696c0-70.56-47.559-132.49-115.654-150.603c-8.911-2.371-14.214-11.516-11.843-20.427
		c2.371-8.911,11.518-14.214,20.427-11.844c80.682,21.461,137.626,93.557,140.359,176.616c0.826,2.037,1.261,4.273,1.213,6.61
		C446.142,237.63,438.703,244.881,429.642,244.881z"/>
	<path style="fill:#FFC033;" d="M79.008,245.065c-8.558,0-15.846-6.544-16.612-15.231c-0.447-5.074,1.424-9.817,4.737-13.184
		c4.912-80.828,61.142-150.348,140.113-171.35c8.907-2.373,18.056,2.933,20.425,11.844c2.37,8.912-2.933,18.057-11.844,20.427
		c-68.094,18.108-115.653,80.039-115.653,150.602c0,9.22-7.475,16.696-16.696,16.696c-0.995,0-1.999,0.045-2.986,0.131
		C79.995,245.043,79.498,245.065,79.008,245.065z"/>
</g>
<g>
	<path style="fill:#F26D76;" d="M256,122.435c-33.755,0-61.217-27.462-61.217-61.217S222.245,0,256,0s61.217,27.462,61.217,61.217
		S289.756,122.435,256,122.435z M256,33.391c-15.343,0-27.826,12.483-27.826,27.826S240.657,89.043,256,89.043
		s27.826-12.483,27.826-27.826S271.344,33.391,256,33.391z"/>
	<path style="fill:#F26D76;" d="M476.229,231.528c-12.281-12.537-28.699-19.651-46.229-20.034c-0.035-0.001-0.069,0.003-0.105,0.002
		c-0.06,0-0.12,0.004-0.18,0.004c-5.398-0.04-10.228,2.52-13.305,6.522l-16.39,16.39c-3.153,3.153-7.346,4.891-11.806,4.891
		c-4.459,0-8.652-1.737-11.805-4.891l-19.561-19.559c-19.528-19.531-51.306-19.528-70.833,0l-19.561,19.559
		c-6.51,6.509-17.102,6.509-23.611,0l-19.561-19.559c-19.528-19.531-51.306-19.528-70.833,0l-19.561,19.559
		c-6.51,6.509-17.102,6.509-23.611,0l-17.898-17.897c-3.711-3.712-8.734-5.304-13.576-4.789c-0.082,0.006-0.163,0.002-0.246,0.009
		c-16.574,1.461-31.925,9.026-43.227,21.306c-11.372,12.357-17.636,28.415-17.636,45.218c0,36.824,29.959,66.782,66.782,66.782
		h345.043c36.824,0,66.782-29.959,66.782-66.782C495.304,260.681,488.53,244.083,476.229,231.528z M428.521,311.651H83.479
		c-18.412,0-33.391-14.979-33.391-33.391c0-14.87,10.045-27.826,23.83-31.987l11.751,11.75c9.46,9.461,22.038,14.671,35.416,14.671
		c13.379,0,25.956-5.21,35.417-14.671l19.561-19.559c6.51-6.51,17.102-6.508,23.611,0l19.561,19.559
		c19.528,19.531,51.305,19.528,70.833,0l19.561-19.559c6.51-6.51,17.102-6.508,23.611,0l19.561,19.559
		c19.528,19.531,51.305,19.528,70.833,0l12.314-12.314c14.808,3.416,25.967,16.824,25.967,32.55
		C461.913,296.672,446.933,311.651,428.521,311.651z"/>
</g>
<g>
</g>
<g>
</g>
<g>
</g>
<g>
</g>
<g>
</g>
<g>
</g>
<g>
</g>
<g>
</g>
<g>
</g>
<g>
</g>
<g>
</g>
<g>
</g>
<g>
</g>
<g>
</g>
<g>
</g>
</svg>
