<svg width="141" height="141" viewBox="0 0 141 141" fill="none" xmlns="http://www.w3.org/2000/svg">
<g id="horse">
<g id="Frame" clip-path="url(#clip0)">
<g id="Page 1">
<g id="014   Horse">
<path id="Shape" d="M105.75 66.975C105.748 68.4644 105.615 69.9507 105.351 71.4165C95.0717 64.474 82.9016 60.8714 70.5 61.1C58.0984 60.8714 45.9283 64.474 35.6495 71.4165C35.3852 69.9507 35.2515 68.4644 35.25 66.975C35.3919 56.0004 37.5424 45.1445 41.595 34.9445C44.1639 28.1038 48.4537 22.0414 54.05 17.343C56.9811 15.026 60.381 13.3742 64.014 12.502C63.6252 16.1549 63.4369 19.8265 63.45 23.5C63.45 39.0805 66.599 51.7 70.5 51.7C74.401 51.7 77.55 39.0805 77.55 23.5C77.5631 19.8265 77.3748 16.1549 76.986 12.502C80.619 13.3742 84.0189 15.026 86.95 17.343C92.5463 22.0414 96.8361 28.1038 99.405 34.9445C103.458 45.1445 105.608 56.0004 105.75 66.975V66.975Z" fill="#607D8B"/>
<path id="Shape_2" d="M77.55 23.5C77.55 39.0805 74.401 51.7 70.5 51.7C66.599 51.7 63.45 39.0805 63.45 23.5C63.4369 19.8264 63.6252 16.1549 64.014 12.502C68.2798 11.4993 72.7201 11.4993 76.986 12.502C77.3748 16.1549 77.5631 19.8264 77.55 23.5V23.5Z" fill="#CFD8DC"/>
<path id="Shape_3" d="M105.35 71.4165C104.002 78.0992 100.268 84.0631 94.846 88.1955C87.8828 93.5821 79.3028 96.4559 70.5 96.35C61.6971 96.4559 53.1171 93.5821 46.154 88.1955C40.7317 84.0631 36.998 78.0992 35.6495 71.4165C45.9282 64.474 58.0984 60.8714 70.5 61.1C82.9015 60.8714 95.0717 64.474 105.35 71.4165Z" fill="#EF314C"/>
<path id="Shape_4" d="M70.5 61.1C69.3109 61.1 68.15 61.1681 66.975 61.2269C78.1702 61.5935 89.032 65.1267 98.3005 71.4165C96.9519 78.0992 93.2182 84.0631 87.796 88.1955C81.7994 92.8637 74.5542 95.6506 66.975 96.2043C68.1335 96.3007 69.3109 96.35 70.5 96.35C79.3028 96.4559 87.8828 93.5821 94.846 88.1955C100.268 84.0631 104.002 78.0992 105.35 71.4165C95.0717 64.474 82.9015 60.8714 70.5 61.1Z" fill="#BB193B"/>
<path id="Oval" d="M61.1 86.95C63.6958 86.95 65.8 84.8458 65.8 82.25C65.8 79.6543 63.6958 77.55 61.1 77.55C58.5043 77.55 56.4 79.6543 56.4 82.25C56.4 84.8458 58.5043 86.95 61.1 86.95Z" fill="#37474F"/>
<path id="Oval_2" d="M79.8999 86.95C82.4957 86.95 84.5999 84.8458 84.5999 82.25C84.5999 79.6543 82.4957 77.55 79.8999 77.55C77.3042 77.55 75.2 79.6543 75.2 82.25C75.2 84.8458 77.3042 86.95 79.8999 86.95Z" fill="#37474F"/>
<path id="Oval_3" d="M51.6999 54.05C54.2957 54.05 56.3999 50.8936 56.3999 47C56.3999 43.1064 54.2957 39.95 51.6999 39.95C49.1042 39.95 46.9999 43.1064 46.9999 47C46.9999 50.8936 49.1042 54.05 51.6999 54.05Z" fill="#37474F"/>
<path id="Oval_4" d="M89.3 54.05C91.8957 54.05 94 50.8936 94 47C94 43.1064 91.8957 39.95 89.3 39.95C86.7042 39.95 84.6 43.1064 84.6 47C84.6 50.8936 86.7042 54.05 89.3 54.05Z" fill="#37474F"/>
<path id="Shape_5" d="M54.0499 17.343C48.4536 22.0414 44.1638 28.1038 41.5949 34.9445C37.7447 31.7742 34.9566 27.5018 33.6049 22.701C30.5969 13.1835 38.2344 2.256 38.2344 2.256C38.2344 2.256 50.7599 6.815 53.7679 16.3325C53.8837 16.6629 53.9778 17.0004 54.0499 17.343V17.343Z" fill="#CFD8DC"/>
<path id="Shape_6" d="M107.395 22.701C106.043 27.5018 103.255 31.7742 99.4049 34.9445C96.8361 28.1038 92.5462 22.0414 86.95 17.343C87.022 17.0004 87.1162 16.6629 87.232 16.3325C90.24 6.815 102.765 2.256 102.765 2.256C102.765 2.256 110.403 13.1835 107.395 22.701Z" fill="#CFD8DC"/>
<path id="Shape_7" d="M117.5 108.1C117.5 108.1 117.5 117.5 105.75 119.85C103.762 119.315 101.827 118.6 99.969 117.712H99.9455C97.2168 110.931 90.0672 107.034 82.8899 108.414C75.7125 109.795 70.5188 116.066 70.5 123.375C70.4812 116.066 65.2875 109.795 58.1101 108.414C50.9328 107.034 43.7832 110.931 41.0545 117.712H41.031C39.1734 118.6 37.2383 119.315 35.25 119.85C23.5 117.5 23.5 108.1 23.5 108.1C27.072 97.4075 40.0675 90.7805 46.154 88.1955C53.1172 93.5821 61.6972 96.4559 70.5 96.35C79.3028 96.4559 87.8829 93.5821 94.846 88.1955C100.933 90.7805 113.928 97.4075 117.5 108.1Z" fill="#607D8B"/>
<path id="Shape_8" d="M94.846 88.1955C93.9624 88.9005 93.0224 89.5608 92.0542 90.1883C98.6201 93.5417 107.578 99.5037 110.45 108.1C110.102 112.934 106.935 117.108 102.373 118.745C103.478 119.174 104.605 119.543 105.75 119.85C117.5 117.5 117.5 108.1 117.5 108.1C113.928 97.4075 100.933 90.7805 94.846 88.1955Z" fill="#37474F"/>
<path id="Shape_9" d="M70.4999 123.375C70.4999 131.811 63.6611 138.65 55.2249 138.65C46.7888 138.65 39.9499 131.811 39.9499 123.375C39.9429 121.435 40.3099 119.512 41.0309 117.712H41.0544C43.7831 110.931 50.9327 107.034 58.1101 108.414C65.2874 109.795 70.4811 116.066 70.4999 123.375V123.375Z" fill="#CFD8DC"/>
<path id="Shape_10" d="M55.225 108.1C54.0557 108.113 52.8918 108.26 51.7564 108.539C58.6247 110.191 63.4618 116.34 63.4484 123.404C63.4349 130.468 58.5745 136.6 51.7 138.225C57.4321 139.606 63.4477 137.565 67.1557 132.981C70.8637 128.396 71.602 122.087 69.0525 116.77C66.5031 111.454 61.1213 108.079 55.225 108.1V108.1Z" fill="#9E9E9E"/>
<path id="Shape_11" d="M101.05 123.375C101.075 131.277 95.0878 137.903 87.2236 138.675C79.3593 139.447 72.1972 134.113 70.6847 126.357C69.1721 118.601 73.8051 110.967 81.3832 108.728C88.9614 106.489 96.9997 110.379 99.9454 117.711H99.9689C100.69 119.512 101.057 121.435 101.05 123.375Z" fill="#CFD8DC"/>
<path id="Shape_12" d="M99.969 117.712H99.9455C97.1537 110.646 89.5704 106.731 82.1936 108.547C87.0466 109.664 91.0444 113.088 92.8955 117.712H92.919C93.64 119.512 94.007 121.435 94 123.375C93.994 130.448 89.1324 136.592 82.25 138.225C86.7951 139.322 91.5926 138.271 95.2619 135.373C98.9311 132.474 101.065 128.051 101.05 123.375C101.057 121.435 100.69 119.512 99.969 117.712V117.712Z" fill="#9E9E9E"/>
<g id="Group">
<path id="Shape_13" d="M61.1 89.3C64.9936 89.3 68.15 86.1436 68.15 82.25C68.15 78.3564 64.9936 75.2 61.1 75.2C57.2064 75.2 54.05 78.3564 54.05 82.25C54.05 86.1436 57.2064 89.3 61.1 89.3ZM61.1 79.9C62.3978 79.9 63.45 80.9521 63.45 82.25C63.45 83.5479 62.3978 84.6 61.1 84.6C59.8021 84.6 58.75 83.5479 58.75 82.25C58.75 80.9521 59.8021 79.9 61.1 79.9Z" fill="black"/>
<path id="Shape_14" d="M79.9 89.3C83.7936 89.3 86.95 86.1436 86.95 82.25C86.95 78.3564 83.7936 75.2 79.9 75.2C76.0064 75.2 72.85 78.3564 72.85 82.25C72.85 86.1436 76.0064 89.3 79.9 89.3ZM79.9 79.9C81.1978 79.9 82.25 80.9521 82.25 82.25C82.25 83.5479 81.1978 84.6 79.9 84.6C78.6021 84.6 77.55 83.5479 77.55 82.25C77.55 80.9521 78.6021 79.9 79.9 79.9Z" fill="black"/>
<path id="Shape_15" d="M51.7 56.4C55.6527 56.4 58.75 52.2711 58.75 47C58.75 41.729 55.6527 37.6 51.7 37.6C47.7473 37.6 44.65 41.729 44.65 47C44.65 52.2711 47.7473 56.4 51.7 56.4ZM51.7 42.3C52.6588 42.3 54.05 44.1307 54.05 47C54.05 49.8694 52.6588 51.7 51.7 51.7C50.7412 51.7 49.35 49.8694 49.35 47C49.35 44.1307 50.7412 42.3 51.7 42.3Z" fill="black"/>
<path id="Shape_16" d="M89.3 56.4C93.2527 56.4 96.35 52.2711 96.35 47C96.35 41.729 93.2527 37.6 89.3 37.6C85.3473 37.6 82.25 41.729 82.25 47C82.25 52.2711 85.3473 56.4 89.3 56.4ZM89.3 42.3C90.2588 42.3 91.65 44.1307 91.65 47C91.65 49.8694 90.2588 51.7 89.3 51.7C88.3412 51.7 86.95 49.8694 86.95 47C86.95 44.1307 88.3412 42.3 89.3 42.3Z" fill="black"/>
<path id="Shape_17" d="M21.2722 107.355C21.1916 107.595 21.1503 107.847 21.15 108.1C21.15 112.017 24.0005 119.998 34.78 122.153C34.9345 122.186 35.0921 122.201 35.25 122.2C35.4417 122.2 35.6328 122.177 35.8187 122.13C35.8798 122.115 36.6059 121.93 37.6987 121.575C36.8509 129.849 41.9068 137.588 49.8244 140.137C57.7419 142.685 66.3628 139.347 70.5 132.131C74.6481 139.33 83.2603 142.654 91.1694 140.109C99.0785 137.565 104.136 129.842 103.308 121.575C104.392 121.93 105.12 122.115 105.188 122.13C105.372 122.176 105.561 122.2 105.75 122.2C105.908 122.201 106.065 122.186 106.22 122.153C116.999 119.998 119.85 112.017 119.85 108.1C119.85 107.847 119.808 107.595 119.728 107.355C116.473 97.6096 106.467 91.1401 99.0736 87.5422C103.396 83.3779 106.355 78.0013 107.559 72.1215C107.61 71.9533 107.642 71.7799 107.653 71.6045C107.935 70.0771 108.085 68.5282 108.1 66.975C107.951 56.2661 105.982 45.6606 102.277 35.6119C105.733 32.2403 108.267 28.0386 109.637 23.4084C112.955 12.9086 105.031 1.39355 104.702 0.909453C104.09 0.0330723 102.964 -0.320328 101.962 0.0493535C101.442 0.237354 89.9768 4.51435 85.7867 13.576C81.1829 10.7794 75.8861 9.33243 70.5 9.4C65.1099 9.33228 59.8094 10.7818 55.2038 13.583C50.9738 4.4932 39.5575 0.235004 39.0382 0.0493535C38.0382 -0.315482 36.9178 0.0373932 36.3075 0.909453C35.9691 1.39355 28.0449 12.9086 31.3725 23.4084C32.742 28.0386 35.2761 32.2403 38.7327 35.6119C35.0246 45.66 33.0522 56.2656 32.9 66.975C32.9152 68.5282 33.0646 70.0771 33.3465 71.6045C33.3579 71.7799 33.3895 71.9533 33.4405 72.1215C34.6454 78.0013 37.604 83.3779 41.9263 87.5422C34.545 91.1377 24.5269 97.6096 21.2722 107.355V107.355ZM55.225 136.3C48.0867 136.3 42.3 130.513 42.3 123.375C42.3 116.237 48.0867 110.45 55.225 110.45C62.3632 110.45 68.15 116.237 68.15 123.375C68.1422 130.51 62.36 136.292 55.225 136.3ZM85.775 136.3C78.6367 136.3 72.85 130.513 72.85 123.375C72.85 116.237 78.6367 110.45 85.775 110.45C92.9132 110.45 98.7 116.237 98.7 123.375C98.6922 130.51 92.91 136.292 85.775 136.3ZM101.833 5.21465C103.649 8.39185 107.144 15.6957 105.155 21.9937C104.155 25.2757 102.496 28.3192 100.279 30.9378C97.8092 25.4265 94.2153 20.4918 89.7277 16.45C91.9649 10.5045 98.6271 6.721 101.833 5.21465V5.21465ZM74.7864 14.4713C75.0402 17.2984 75.2 20.2923 75.2 23.5C75.2 38.7116 72.2695 47.9682 70.5 49.2772C68.7304 47.9682 65.8 38.7022 65.8 23.5C65.8 20.2923 65.9598 17.2984 66.2136 14.4713C69.0497 13.9762 71.9502 13.9762 74.7864 14.4713V14.4713ZM35.8445 21.9913C33.8564 15.6933 37.3509 8.39185 39.1674 5.2123C42.3587 6.7163 48.981 10.4928 51.2676 16.4524C46.7827 20.4938 43.1905 25.4266 40.7208 30.9354C38.5041 28.3175 36.8448 25.2749 35.8445 21.9937V21.9913ZM61.3937 15.8038C61.2198 18.2619 61.1 20.8046 61.1 23.5C61.1 34.8482 63.0787 54.05 70.5 54.05C77.9213 54.05 79.9 34.8482 79.9 23.5C79.9 20.8046 79.7801 18.2619 79.6062 15.8038C98.7681 23.4718 103.4 54.9689 103.4 66.975C103.4 67.0972 103.379 67.21 103.379 67.3369C93.3922 61.5667 82.0328 58.6 70.5 58.75C58.9671 58.6 47.6077 61.5667 37.6211 67.3369C37.6211 67.2147 37.6 67.1019 37.6 66.975C37.6 54.9689 42.2318 23.4718 61.3937 15.8038V15.8038ZM38.305 72.4975C47.925 66.4073 59.1157 63.2624 70.5 63.45C81.8842 63.2624 93.0749 66.4073 102.695 72.4975C99.593 84.7598 86.3366 94 70.5 94C54.6633 94 41.407 84.7598 38.305 72.4975ZM45.8767 90.8863C53.0478 96.0367 61.6712 98.7732 70.5 98.7C79.332 98.7752 87.9589 96.0387 95.1327 90.8863C100.869 93.4713 111.853 99.4356 115.126 108.434C114.981 109.877 113.893 115.587 105.82 117.432C104.423 117.019 103.055 116.515 101.724 115.923C98.9507 109.959 93.0811 106.041 86.5092 105.766C79.9373 105.492 73.7614 108.907 70.5 114.619C67.2385 108.907 61.0626 105.492 54.4907 105.766C47.9188 106.041 42.0492 109.959 39.2755 115.923C37.9448 116.515 36.5765 117.019 35.1795 117.432C27.1096 115.587 26.0145 109.888 25.8735 108.434C29.14 99.4356 40.1309 93.4689 45.8673 90.8863H45.8767Z" fill="black"/>
</g>
</g>
</g>
</g>
</g>
<defs>
<clipPath id="clip0">
<rect width="141" height="141" fill="white"/>
</clipPath>
</defs>
</svg>
