<svg width="644" height="242" viewBox="0 0 644 242" fill="none" xmlns="http://www.w3.org/2000/svg">
<g filter="url(#filter0_d)">
<path d="M355.574 148.846C354.799 159.555 350.835 167.986 343.68 174.139C336.57 180.291 327.182 183.367 315.516 183.367C302.755 183.367 292.706 179.083 285.369 170.516C278.077 161.902 274.432 150.099 274.432 135.105V129.021C274.432 119.451 276.118 111.02 279.49 103.729C282.863 96.4368 287.671 90.8542 293.914 86.9805C300.203 83.0612 307.495 81.1016 315.789 81.1016C327.273 81.1016 336.525 84.1777 343.543 90.3301C350.561 96.4824 354.617 105.118 355.711 116.238H335.203C334.702 109.812 332.902 105.164 329.803 102.293C326.749 99.3763 322.078 97.918 315.789 97.918C308.953 97.918 303.826 100.379 300.408 105.301C297.036 110.177 295.304 117.765 295.213 128.064V135.584C295.213 146.339 296.831 154.201 300.066 159.168C303.348 164.135 308.497 166.619 315.516 166.619C321.85 166.619 326.567 165.184 329.666 162.312C332.811 159.396 334.611 154.907 335.066 148.846H355.574ZM364.666 144.334C364.666 136.997 366.079 130.457 368.904 124.715C371.73 118.973 375.786 114.529 381.072 111.385C386.404 108.24 392.579 106.668 399.598 106.668C409.578 106.668 417.713 109.721 424.002 115.828C430.337 121.935 433.868 130.229 434.598 140.711L434.734 145.77C434.734 157.117 431.567 166.232 425.232 173.113C418.898 179.949 410.398 183.367 399.734 183.367C389.07 183.367 380.548 179.949 374.168 173.113C367.833 166.277 364.666 156.98 364.666 145.223V144.334ZM384.422 145.77C384.422 152.788 385.743 158.165 388.387 161.902C391.03 165.594 394.812 167.439 399.734 167.439C404.52 167.439 408.257 165.617 410.945 161.971C413.634 158.279 414.979 152.4 414.979 144.334C414.979 137.452 413.634 132.12 410.945 128.338C408.257 124.555 404.474 122.664 399.598 122.664C394.767 122.664 391.03 124.555 388.387 128.338C385.743 132.075 384.422 137.885 384.422 145.77ZM443.826 144.334C443.826 136.997 445.239 130.457 448.064 124.715C450.89 118.973 454.946 114.529 460.232 111.385C465.564 108.24 471.74 106.668 478.758 106.668C488.738 106.668 496.873 109.721 503.162 115.828C509.497 121.935 513.029 130.229 513.758 140.711L513.895 145.77C513.895 157.117 510.727 166.232 504.393 173.113C498.058 179.949 489.559 183.367 478.895 183.367C468.23 183.367 459.708 179.949 453.328 173.113C446.993 166.277 443.826 156.98 443.826 145.223V144.334ZM463.582 145.77C463.582 152.788 464.904 158.165 467.547 161.902C470.19 165.594 473.973 167.439 478.895 167.439C483.68 167.439 487.417 165.617 490.105 161.971C492.794 158.279 494.139 152.4 494.139 144.334C494.139 137.452 492.794 132.12 490.105 128.338C487.417 124.555 483.634 122.664 478.758 122.664C473.927 122.664 470.19 124.555 467.547 128.338C464.904 132.075 463.582 137.885 463.582 145.77ZM552.928 152.332L545.818 159.441V182H526.062V77H545.818V135.174L549.646 130.252L568.582 108.035H592.303L565.574 138.865L594.627 182H571.932L552.928 152.332ZM621.697 182H601.873V108.035H621.697V182ZM600.711 88.8945C600.711 85.9323 601.691 83.4941 603.65 81.5801C605.656 79.666 608.367 78.709 611.785 78.709C615.158 78.709 617.846 79.666 619.852 81.5801C621.857 83.4941 622.859 85.9323 622.859 88.8945C622.859 91.9023 621.834 94.3633 619.783 96.2773C617.778 98.1914 615.112 99.1484 611.785 99.1484C608.458 99.1484 605.77 98.1914 603.719 96.2773C601.714 94.3633 600.711 91.9023 600.711 88.8945Z" fill="#A0C4FF"/>
</g>
<g clip-path="url(#clip0)">
<path d="M152.431 3.03351H89.5693C83.3217 3.03351 78.2572 8.09802 78.2572 14.3456V37.9018H163.743V14.3456C163.743 8.09802 158.679 3.03351 152.431 3.03351Z" fill="#FFC6FF" fill-opacity="0.9"/>
<path d="M109.61 3.03445C103.363 3.03445 98.2993 8.09849 98.2993 14.3456V37.9028H78.2577V14.3456C78.2577 8.09849 83.3217 3.03445 89.5688 3.03445H109.61Z" fill="#FFC6FF"/>
<path d="M235.548 227.675H6.45639C6.45639 227.675 6.01824 195.611 14.32 161.897C14.8848 159.584 15.4936 157.261 16.1506 154.939L25.7237 128.163H211.129L225.848 154.939C226.506 157.261 227.114 159.584 227.684 161.897C235.982 195.606 235.548 227.675 235.548 227.675Z" fill="#C6865C"/>
<path d="M55.8183 154.939C49.4833 191.054 49.7901 227.676 49.7901 227.676H6.45411C6.45411 227.676 5.95735 191.054 16.1535 154.939L25.7262 128.164H61.7728L55.8183 154.939Z" fill="#B16E3D"/>
<path d="M192.212 118.663H49.7877C49.7877 118.663 49.5443 96.2253 53.9268 71.5578C54.4817 68.4463 55.1051 65.306 55.816 62.1652L74.4018 37.9018H161.921L186.185 62.1652C186.895 65.306 187.519 68.4463 188.074 71.5578C192.456 96.2257 192.212 118.663 192.212 118.663V118.663Z" fill="#C6865C"/>
<path d="M93.0324 37.9018C88.8887 46.905 85.6165 56.2636 83.2504 65.8462C80.8838 75.4289 79.4233 85.2308 78.9118 95.1297C78.1962 108.88 78.2596 118.663 78.2596 118.663H49.7891C49.7891 118.663 49.4824 90.2169 55.8174 62.1652L74.4032 37.9018H93.0324Z" fill="#B16E3D"/>
<path d="M227.685 161.897C226.998 161.97 226.268 162.004 225.503 162.004C213.676 162.004 211.572 147.981 202.214 147.981C192.85 147.981 191.311 163.942 173.252 163.942C155.191 163.942 153.653 147.981 144.29 147.981C134.931 147.981 132.827 162.004 121 162.004C109.173 162.004 107.069 147.981 97.7103 147.981C88.347 147.981 86.8081 163.942 68.7483 163.942C50.6886 163.942 49.1496 147.981 39.791 147.981C30.4277 147.981 28.3239 162.004 16.4967 162.004C15.7324 162.004 15.0068 161.97 14.3201 161.897C14.8849 159.584 15.4937 157.261 16.1507 154.939L25.7238 128.163H211.129L225.848 154.939C226.506 157.261 227.115 159.584 227.685 161.897Z" fill="#B16E3D"/>
<path d="M123.586 109.904H27.1692C13.4575 109.904 2.34155 121.019 2.34155 134.732V136.057C2.34155 146.083 4.6708 154.703 16.4971 154.703C28.3235 154.703 30.4263 140.675 39.7887 140.675C49.1511 140.675 50.6881 156.637 68.7488 156.637C86.8095 156.637 88.3466 140.675 97.7089 140.675C107.071 140.675 109.174 154.703 121 154.703C132.827 154.703 134.93 140.675 144.292 140.675C153.654 140.675 155.191 156.637 173.252 156.637C191.313 156.637 192.85 140.675 202.212 140.675C211.575 140.675 213.677 154.703 225.504 154.703C237.33 154.703 239.659 146.084 239.659 136.057V134.732C239.659 121.02 228.544 109.904 214.832 109.904H118.415" fill="#F9EFDA"/>
<path d="M27.1692 109.904H75.5252C61.8135 109.904 50.6971 123.212 50.6971 139.631V141.218C50.6971 143.843 50.8091 146.389 51.1059 148.761C47.2396 144.733 44.5081 140.672 39.7849 140.672C30.4263 140.672 28.3225 154.701 16.4952 154.701C10.579 154.701 7.04398 152.549 4.98461 149.14C2.92525 145.731 2.34058 141.067 2.34058 136.056V134.727C2.34105 121.016 13.4574 109.904 27.1692 109.904V109.904Z" fill="#F6E4C1"/>
<path d="M188.073 71.5578C186.423 72.0205 184.528 72.264 182.372 72.264C168.484 72.264 166.011 55.7867 155.016 55.7867C144.022 55.7867 142.215 74.5332 121 74.5332C99.7848 74.5332 97.9831 55.7867 86.9839 55.7867C75.9894 55.7867 73.5155 72.264 59.6284 72.264C57.4712 72.264 55.5773 72.0205 53.9268 71.5578C54.4817 68.4463 55.1051 65.306 55.816 62.1652L74.4018 37.9018H161.921L186.185 62.1652C186.895 65.306 187.518 68.4468 188.073 71.5578V71.5578Z" fill="#B16E3D"/>
<path d="M199.001 43.058V37.3668C199.001 29.8619 192.916 23.7774 185.411 23.7774H56.5887C49.0839 23.7774 42.9994 29.8615 42.9994 37.3668V43.058C42.9994 54.8347 45.7356 64.9581 59.626 64.9581C73.5169 64.9581 75.987 48.4813 86.9838 48.4813C97.9807 48.4813 99.7862 67.2306 120.999 67.2306C142.213 67.2306 144.018 48.4813 155.015 48.4813C166.012 48.4813 168.482 64.9581 182.373 64.9581C196.265 64.9581 199.001 54.8343 199.001 43.058V43.058Z" fill="#F9EFDA"/>
<path d="M61.9021 37.3654V43.0585C61.9021 48.9469 62.586 54.4188 65.006 58.4246C65.9017 59.9096 67.0384 61.1896 68.4682 62.2157C66.0581 63.854 63.2279 64.9581 59.6291 64.9581C52.682 64.9581 48.5264 62.4275 46.1064 58.4246C43.6864 54.4188 43.0024 48.9469 43.0024 43.0585V37.3654C43.0024 29.8615 49.0865 23.7774 56.5904 23.7774H75.4905C67.9861 23.7774 61.9021 29.8615 61.9021 37.3654V37.3654Z" fill="#F6E4C1"/>
<path d="M200.442 89.1505C200.442 93.1823 197.175 96.4545 193.138 96.4545C182.421 96.4545 176.822 93.6937 171.879 91.259C167.691 89.1992 164.385 87.5733 157.067 87.5733C149.748 87.5733 146.443 89.1997 142.26 91.259C137.318 93.6937 131.713 96.4545 120.996 96.4545C110.279 96.4545 104.679 93.6937 99.7366 91.259C95.5489 89.1992 92.2427 87.5733 84.9245 87.5733C80.8053 87.5733 77.9566 88.0894 75.5073 88.9076C73.6082 89.5405 71.9478 90.3634 70.1172 91.2595C65.1751 93.6942 59.575 96.455 48.858 96.455C44.8216 96.455 41.5541 93.1828 41.5541 89.151C41.5541 85.1145 44.8211 81.847 48.858 81.847C56.1714 81.847 59.4777 80.2159 63.6654 78.1561C66.9716 76.5297 70.57 74.7572 75.7947 73.7642C78.3853 73.2674 81.3749 72.9658 84.9245 72.9658C95.6467 72.9658 101.246 75.7219 106.188 78.1566C110.376 80.2164 113.682 81.8475 120.996 81.8475C128.314 81.8475 131.621 80.2164 135.808 78.1566C140.75 75.7219 146.35 72.9658 157.067 72.9658C167.784 72.9658 173.389 75.7219 178.331 78.1566C182.519 80.2164 185.824 81.8475 193.138 81.8475C197.175 81.8466 200.442 85.114 200.442 89.1505Z" fill="#CAFFBF"/>
<path d="M75.5078 88.9071C73.6087 89.54 71.9483 90.3629 70.1177 91.2591C65.1756 93.6937 59.5755 96.4545 48.8585 96.4545C44.822 96.4545 41.5546 93.1823 41.5546 89.1505C41.5546 85.1141 44.8216 81.8466 48.8585 81.8466C56.1719 81.8466 59.4782 80.2154 63.6659 78.1556C66.9721 76.5292 70.5705 74.7567 75.7952 73.7637C73.9206 80.3421 74.4221 85.3816 75.5078 88.9071Z" fill="#95D6A4"/>
<path d="M239.225 176.845C239.225 180.877 235.953 184.149 231.921 184.149C224.481 184.149 221.107 185.926 216.837 188.176C212.007 190.718 205.993 193.887 194.945 193.887C183.896 193.887 177.883 190.718 173.053 188.176C168.782 185.926 165.408 184.149 157.968 184.149C150.532 184.149 147.158 185.926 142.888 188.176C138.058 190.718 132.049 193.887 120.996 193.887C109.947 193.887 103.939 190.718 99.1084 188.176C94.8332 185.926 91.4637 184.149 84.0236 184.149C76.5882 184.149 73.2139 185.926 68.9435 188.176C64.1134 190.718 58.0998 193.887 47.0515 193.887C45.581 193.887 44.1933 193.829 42.893 193.727C34.4207 193.055 29.3519 190.376 25.1642 188.176C20.889 185.926 17.5147 184.149 10.0793 184.149C6.04759 184.149 2.77539 180.877 2.77539 176.845C2.77539 172.808 6.04759 169.541 10.0793 169.541C21.1277 169.541 27.1413 172.706 31.9714 175.248C35.633 177.181 38.6372 178.763 44.1101 179.172C45.0157 179.245 45.9946 179.279 47.051 179.279C54.4863 179.279 57.8606 177.502 62.1358 175.247C66.9664 172.705 72.9748 169.54 84.0231 169.54C95.0715 169.54 101.085 172.705 105.915 175.247C110.186 177.502 113.56 179.279 120.995 179.279C128.435 179.279 131.805 177.502 136.08 175.247C140.91 172.705 146.919 169.54 157.967 169.54C169.02 169.54 175.029 172.705 179.859 175.247C184.135 177.502 187.509 179.279 194.944 179.279C202.384 179.279 205.759 177.502 210.029 175.247C214.859 172.705 220.868 169.54 231.921 169.54C235.953 169.541 239.225 172.808 239.225 176.845Z" fill="#BDB2FF"/>
<path d="M42.894 193.727C34.4216 193.055 29.3529 190.376 25.1651 188.176C20.89 185.926 17.5157 184.149 10.0803 184.149C6.04857 184.149 2.77637 180.877 2.77637 176.845C2.77637 172.808 6.04857 169.541 10.0803 169.541C21.1287 169.541 27.1423 172.706 31.9723 175.248C35.634 177.181 38.6382 178.763 44.1111 179.172C42.2465 182.751 40.5908 188.107 42.894 193.727V193.727Z" fill="#AC80DD"/>
<path d="M242 219.124H0C0 230.083 8.88357 238.966 19.8421 238.966H222.158C233.116 238.966 242 230.083 242 219.124Z" fill="#FDFFB6"/>
<path d="M71.9718 238.966H19.8421C14.364 238.966 9.40255 236.746 5.80895 233.158C2.22054 229.564 0 224.607 0 219.124H52.1297C52.1297 224.607 54.3503 229.564 57.9387 233.158C61.5323 236.746 66.4942 238.966 71.9718 238.966Z" fill="#FFD6A5"/>
</g>
<defs>
<filter id="filter0_d" x="270.432" y="77" width="356.428" height="114.367" filterUnits="userSpaceOnUse" color-interpolation-filters="sRGB">
<feFlood flood-opacity="0" result="BackgroundImageFix"/>
<feColorMatrix in="SourceAlpha" type="matrix" values="0 0 0 0 0 0 0 0 0 0 0 0 0 0 0 0 0 0 127 0"/>
<feOffset dy="4"/>
<feGaussianBlur stdDeviation="2"/>
<feColorMatrix type="matrix" values="0 0 0 0 0 0 0 0 0 0 0 0 0 0 0 0 0 0 0.25 0"/>
<feBlend mode="normal" in2="BackgroundImageFix" result="effect1_dropShadow"/>
<feBlend mode="normal" in="SourceGraphic" in2="effect1_dropShadow" result="shape"/>
</filter>
<clipPath id="clip0">
<rect width="242" height="242" fill="white"/>
</clipPath>
</defs>
</svg>
